<svg xmlns="http://www.w3.org/2000/svg" viewBox="0 0 200 200" fill="none">
  <g stroke="currentColor" stroke-width="2" stroke-linecap="round" stroke-linejoin="round">
    <!-- Body outline -->
    <path d="M45 145 Q35 130, 40 115 Q45 100, 55 95 Q60 90, 70 88 Q80 85, 95 85 Q110 85, 120 90 Q130 95, 135 105 Q140 115, 138 125 Q136 135, 130 142 Q120 150, 105 152 Q90 154, 75 152 Q60 150, 45 145 Z" fill="currentColor" opacity="0.15"/>
    
    <!-- Wing pattern -->
    <path d="M55 110 Q65 105, 80 108 Q95 110, 105 115" stroke-width="1.5"/>
    <path d="M50 120 Q65 115, 85 118 Q100 120, 110 125" stroke-width="1.5"/>
    <path d="M48 130 Q65 125, 85 128 Q100 130, 108 135" stroke-width="1.5"/>
    
    <!-- Tail -->
    <path d="M40 130 Q25 140, 15 160 Q10 170, 8 180" stroke-width="2.5"/>
    <path d="M35 135 Q22 145, 12 165 Q8 175, 5 185" stroke-width="2"/>
    <path d="M45 138 Q30 150, 20 170" stroke-width="1.5"/>
    
    <!-- Tail stripes -->
    <path d="M28 150 L22 155" stroke-width="2"/>
    <path d="M22 162 L16 167" stroke-width="2"/>
    <path d="M16 174 L10 179" stroke-width="2"/>
    
    <!-- Neck -->
    <path d="M120 90 Q130 80, 135 70 Q140 60, 142 50" stroke-width="2"/>
    
    <!-- Head -->
    <ellipse cx="145" cy="48" rx="12" ry="10" fill="currentColor" opacity="0.1"/>
    <path d="M133 48 Q140 38, 150 40 Q158 42, 157 50 Q156 58, 148 58 Q140 58, 133 48 Z"/>
    
    <!-- Eye -->
    <circle cx="150" cy="48" r="3" fill="currentColor"/>
    <circle cx="151" cy="47" r="1" fill="white"/>
    
    <!-- Beak -->
    <path d="M157 50 Q170 52, 185 58 Q190 60, 195 62" stroke-width="2.5"/>
    <path d="M157 48 Q170 46, 182 50" stroke-width="1.5"/>
    
    <!-- Crest feathers -->
    <path d="M140 40 Q138 30, 142 18 Q144 12, 148 8" stroke-width="2"/>
    <path d="M144 42 Q144 32, 150 20 Q153 14, 158 10" stroke-width="1.8"/>
    <path d="M148 44 Q150 35, 158 25 Q162 20, 168 16" stroke-width="1.5"/>
    <path d="M150 46 Q154 38, 164 30 Q170 25, 176 22" stroke-width="1.2"/>
    
    <!-- Crest tips -->
    <circle cx="148" cy="8" r="2" fill="currentColor"/>
    <circle cx="158" cy="10" r="2" fill="currentColor"/>
    <circle cx="168" cy="16" r="1.5" fill="currentColor"/>
    <circle cx="176" cy="22" r="1.2" fill="currentColor"/>
    
    <!-- Legs -->
    <path d="M95 152 L92 175 Q90 180, 85 182" stroke-width="1.5"/>
    <path d="M92 175 L95 180" stroke-width="1"/>
    <path d="M92 175 L88 180" stroke-width="1"/>
    
    <path d="M110 150 L115 172 Q118 178, 125 180" stroke-width="1.5"/>
    <path d="M115 172 L112 178" stroke-width="1"/>
    <path d="M115 172 L120 176" stroke-width="1"/>
    
    <!-- Body detail lines -->
    <path d="M70 95 Q85 92, 100 94" stroke-width="1" opacity="0.6"/>
    <path d="M65 102 Q80 98, 95 100" stroke-width="1" opacity="0.6"/>
  </g>
</svg>