<svg xmlns="http://www.w3.org/2000/svg" xmlns:xlink="http://www.w3.org/1999/xlink" width="288.15" height="61.327" viewBox="0 0 288.15 61.327">
  <defs>
    <clipPath id="clip-path">
      <rect id="Rectangle_16863" data-name="Rectangle 16863" width="66.846" height="60.986" fill="none"/>
    </clipPath>
    <clipPath id="clip-path-2">
      <rect id="Rectangle_16869" data-name="Rectangle 16869" width="192.201" height="5.76" fill="none"/>
    </clipPath>
  </defs>
  <g id="Group_66992" data-name="Group 66992" transform="translate(0 -2.51)">
    <g id="Group_66980" data-name="Group 66980" transform="translate(0 2)">
      <path id="Path_86374" data-name="Path 86374" d="M123.5,29.287v.276h-2.777s-2.795-5-2.942-5.185c-.643.258-1.159.663-1.159,1.195v2.114a4.7,4.7,0,0,0,.056.772,1.054,1.054,0,0,0,.239.477.928.928,0,0,0,.477.258,7.183,7.183,0,0,0,.828.092v.276h-4.689v-.276a6.779,6.779,0,0,0,.809-.092.928.928,0,0,0,.477-.258.9.9,0,0,0,.239-.477,5.1,5.1,0,0,0,.056-.827l.018-7.244a4.737,4.737,0,0,0-.055-.81,1.016,1.016,0,0,0-.2-.5.734.734,0,0,0-.441-.239,3.606,3.606,0,0,0-.736-.091v-.276H118.2a4.812,4.812,0,0,1,2.868.736,2.477,2.477,0,0,1,1.084,2.1,2.58,2.58,0,0,1-.7,1.875,3.653,3.653,0,0,1-1.986,1.012l2.335,3.88a2.611,2.611,0,0,0,.865.956,1.691,1.691,0,0,0,.827.258m-5.406-5.608a3.738,3.738,0,0,0,1.692-.607,2.305,2.305,0,0,0,.717-1.912,2.062,2.062,0,0,0-.809-1.765,2.817,2.817,0,0,0-1.931-.643h-.882c-.165,0-.239.091-.239.257v5.535a2.43,2.43,0,0,1,1.453-.865" transform="translate(-17.585 -2.862)" fill="#420d09"/>
      <path id="Path_86375" data-name="Path 86375" d="M138.24,20.922l-.019,6.2a8.954,8.954,0,0,0,.055,1.122,1.477,1.477,0,0,0,.221.662.76.76,0,0,0,.477.293,4.3,4.3,0,0,0,.809.093v.276h-4.67v-.294a3.32,3.32,0,0,0,.827-.092.765.765,0,0,0,.478-.294,1.157,1.157,0,0,0,.221-.607,5.5,5.5,0,0,0,.074-1.067V20.829a8.266,8.266,0,0,0-.036-1.011,1.779,1.779,0,0,0-.2-.625.842.842,0,0,0-.441-.313,2.546,2.546,0,0,0-.754-.129v-.276h4.376v.276a2.529,2.529,0,0,0-.735.129.786.786,0,0,0-.441.331,1.754,1.754,0,0,0-.2.662c-.018.276-.036.625-.036,1.048" transform="translate(-20.927 -2.862)" fill="#420d09"/>
      <path id="Path_86376" data-name="Path 86376" d="M150.429,26.134h.276a5.654,5.654,0,0,0,.386,1.435,2.522,2.522,0,0,0,.827,1.011,3.91,3.91,0,0,0,1.085.606,4.149,4.149,0,0,0,1.213.2,2.5,2.5,0,0,0,1.673-.515,2.055,2.055,0,0,0,.717-1.545,2.518,2.518,0,0,0-.147-1.029,1.606,1.606,0,0,0-.442-.552,3.445,3.445,0,0,0-.772-.552c-.312-.183-2.059-1.048-2.5-1.3a4.3,4.3,0,0,1-.974-.644,2.748,2.748,0,0,1-.68-.938,2.01,2.01,0,0,1-.2-.974,2.917,2.917,0,0,1,.239-1.214,3.044,3.044,0,0,1,.662-.974,3.1,3.1,0,0,1,1.029-.625,3.652,3.652,0,0,1,1.306-.221,3.166,3.166,0,0,1,1.176.2,4.246,4.246,0,0,1,1.1.644c.258.239.368-.477.368-.644h.276l.147,2.868H156.9a3.567,3.567,0,0,0-1.085-2.206,2.494,2.494,0,0,0-1.655-.588,2.292,2.292,0,0,0-1.471.533,1.68,1.68,0,0,0-.57,1.176,1.73,1.73,0,0,0,.128.919,1.937,1.937,0,0,0,.423.643,3.527,3.527,0,0,0,.754.57c.275.165,2.28,1.176,2.795,1.453a3.721,3.721,0,0,1,1.692,1.618,1.841,1.841,0,0,1,.166.919,2.921,2.921,0,0,1-1.085,2.354,3.555,3.555,0,0,1-1.25.662,4.784,4.784,0,0,1-1.582.238,4.2,4.2,0,0,1-1.471-.238,4.315,4.315,0,0,1-1.323-.772c-.35-.294-.478.7-.478.7h-.276Z" transform="translate(-23.299 -2.834)" fill="#420d09"/>
      <path id="Path_86377" data-name="Path 86377" d="M179.169,20.495l-.019,7.042a5.666,5.666,0,0,0,.055.882,1.036,1.036,0,0,0,.239.533.787.787,0,0,0,.46.238,4.532,4.532,0,0,0,.827.093l-.019.275h-4.652v-.293a3.281,3.281,0,0,0,.81-.074,1.07,1.07,0,0,0,.478-.238.8.8,0,0,0,.239-.5,8.363,8.363,0,0,0,.055-.992,3.063,3.063,0,0,0-1.269-2.813,8.272,8.272,0,0,0-4.542-1.048l-.019,3.935a5.664,5.664,0,0,0,.055.882,1.013,1.013,0,0,0,.221.515.921.921,0,0,0,.477.257,4.544,4.544,0,0,0,.81.074v.293h-4.652v-.293a4.376,4.376,0,0,0,.809-.093.9.9,0,0,0,.478-.238.913.913,0,0,0,.239-.478,5.107,5.107,0,0,0,.056-.827l.018-7.243a4.979,4.979,0,0,0-.055-.828.894.894,0,0,0-.2-.478.746.746,0,0,0-.441-.257,5.791,5.791,0,0,0-.735-.092v-.276l4.376.018v.276a3.882,3.882,0,0,0-.754.074.869.869,0,0,0-.423.257,1.069,1.069,0,0,0-.2.533,5.321,5.321,0,0,0-.055.865s-.019,1.912,0,2.648a13.247,13.247,0,0,1,5.81,1.176c.019-.57.019-3.915.019-3.915a4.725,4.725,0,0,0-.056-.81,1.011,1.011,0,0,0-.2-.5.735.735,0,0,0-.423-.238,5.989,5.989,0,0,0-.754-.092v-.276H180.6v.276a3.851,3.851,0,0,0-.754.092.76.76,0,0,0-.423.257,1.022,1.022,0,0,0-.2.515,5.672,5.672,0,0,0-.055.883" transform="translate(-26.133 -2.858)" fill="#420d09"/>
      <path id="Path_86378" data-name="Path 86378" d="M195.847,20.922l-.019,6.2a8.954,8.954,0,0,0,.055,1.122,1.488,1.488,0,0,0,.221.662.762.762,0,0,0,.478.293,4.3,4.3,0,0,0,.809.093v.276h-4.67v-.294a3.325,3.325,0,0,0,.827-.092.765.765,0,0,0,.477-.294,1.157,1.157,0,0,0,.221-.607,5.569,5.569,0,0,0,.074-1.067V20.829a8.078,8.078,0,0,0-.037-1.011,1.762,1.762,0,0,0-.2-.625.849.849,0,0,0-.441-.313,2.551,2.551,0,0,0-.754-.129v-.276h4.376v.276a2.518,2.518,0,0,0-.735.129.788.788,0,0,0-.442.331,1.771,1.771,0,0,0-.2.662c-.018.276-.036.625-.036,1.048" transform="translate(-29.85 -2.862)" fill="#420d09"/>
      <path id="Path_86379" data-name="Path 86379" d="M230.354,27.227l2.427-6.306c.147-.368.257-.644.313-.846a2.083,2.083,0,0,0,.074-.552.645.645,0,0,0-.221-.552,1.866,1.866,0,0,0-.937-.2v-.294H235.5v.294a2.663,2.663,0,0,0-.625.074,2.362,2.362,0,0,0-.533.239,1.566,1.566,0,0,0-.313.368,2.072,2.072,0,0,0-.257.5l-3.861,9.616h-.478l-3.622-9.1a7.361,7.361,0,0,0-.368-.755,1.891,1.891,0,0,0-.386-.514,1.359,1.359,0,0,0-.5-.294,2.066,2.066,0,0,0-.644-.147v-.276h4.689v.294a5.72,5.72,0,0,0-.643.037.974.974,0,0,0-.4.11.429.429,0,0,0-.2.2.587.587,0,0,0-.055.258,1.579,1.579,0,0,0,.074.478,5.171,5.171,0,0,0,.275.772l2.391,6.325c.111.294.313.276.313.276" transform="translate(-34.682 -2.862)" fill="#420d09"/>
      <path id="Path_86380" data-name="Path 86380" d="M250.61,26.29a5.347,5.347,0,0,0-1.453-.7,8.942,8.942,0,0,0-2.077-.313c-.167.387-.736,1.858-.81,2.077-.055.221-.221.718-.257.865-.092.516.018.7.147.827a1.8,1.8,0,0,0,1.048.239v.276h-3.494v-.293a1.853,1.853,0,0,0,.57-.074,1.509,1.509,0,0,0,1.011-.809,5.418,5.418,0,0,0,.239-.552l3.768-9.359h.35s3.677,9.083,3.825,9.414a5.2,5.2,0,0,0,.459.865,1.173,1.173,0,0,0,.478.441,1.887,1.887,0,0,0,.68.092v.276h-4.707v-.293a1.961,1.961,0,0,0,1.049-.2.872.872,0,0,0,.294-.7V28.11l-.056-.239a1.776,1.776,0,0,0-.128-.368,2.66,2.66,0,0,0-.937-1.214m-3.347-1.453a11.625,11.625,0,0,1,3.585.607l-1.893-4.872s-1.526,3.806-1.692,4.265" transform="translate(-37.748 -2.862)" fill="#420d09"/>
      <path id="Path_86381" data-name="Path 86381" d="M276,27l-.221,2.556h-9.028v-.294a4.61,4.61,0,0,0,.827-.092,1.074,1.074,0,0,0,.478-.239.9.9,0,0,0,.221-.5,3.24,3.24,0,0,0,.074-.809l.019-7.244a5.072,5.072,0,0,0-.055-.828.894.894,0,0,0-.2-.478.749.749,0,0,0-.44-.257,5.694,5.694,0,0,0-.736-.091v-.276l4.376.019v.276a4.058,4.058,0,0,0-.755.074.87.87,0,0,0-.422.257,1.084,1.084,0,0,0-.2.534,5.3,5.3,0,0,0-.055.865s-.037,6.012-.019,6.747c0,.736.074,1.14.423,1.471a3.533,3.533,0,0,0,2.134.57,2.784,2.784,0,0,0,3.309-2.28Z" transform="translate(-41.315 -2.858)" fill="#420d09"/>
      <path id="Path_86382" data-name="Path 86382" d="M296.516,27l-.221,2.556h-9.028v-.294a4.61,4.61,0,0,0,.827-.092,1.074,1.074,0,0,0,.478-.239.9.9,0,0,0,.221-.5,3.238,3.238,0,0,0,.074-.809l.019-7.244a5.072,5.072,0,0,0-.055-.828.9.9,0,0,0-.2-.478.746.746,0,0,0-.44-.257,5.694,5.694,0,0,0-.736-.091v-.276l4.376.019v.276a4.058,4.058,0,0,0-.755.074.87.87,0,0,0-.422.257,1.084,1.084,0,0,0-.2.534,5.3,5.3,0,0,0-.055.865s-.037,6.012-.019,6.747c0,.736.074,1.14.423,1.471a3.533,3.533,0,0,0,2.134.57,2.784,2.784,0,0,0,3.309-2.28Z" transform="translate(-44.493 -2.858)" fill="#420d09"/>
      <path id="Path_86383" data-name="Path 86383" d="M310.906,18.986l-.019,4.358c.662.036,1.49.165,1.656.183.606.092.864-.5.938-.845.073-.4.11-.663.128-.865h.293v3.916h-.293a1.988,1.988,0,0,0-1.38-1.747,4.554,4.554,0,0,0-1.342-.184V27.3A4.163,4.163,0,0,0,311,28.419a1.065,1.065,0,0,0,.4.5,1.806,1.806,0,0,0,.735.275,6.414,6.414,0,0,0,1.14.093,6.31,6.31,0,0,0,1.286-.111,2.372,2.372,0,0,0,.9-.368,1.878,1.878,0,0,0,.57-.68,4.272,4.272,0,0,0,.368-1.067h.276l-.239,2.5h-8.66v-.294a3.164,3.164,0,0,0,.809-.092.967.967,0,0,0,.5-.239.9.9,0,0,0,.221-.478,9.438,9.438,0,0,0,.055-1.1l.019-6.692a8.926,8.926,0,0,0-.055-1.085.825.825,0,0,0-.2-.5.738.738,0,0,0-.423-.239,3.787,3.787,0,0,0-.754-.091v-.295l8.109.019.128,2.207h-.276a3.665,3.665,0,0,0-.294-.956,1.4,1.4,0,0,0-.516-.57,2.264,2.264,0,0,0-.864-.314,8.129,8.129,0,0,0-1.25-.091h-1.839a.213.213,0,0,0-.239.238" transform="translate(-47.67 -2.858)" fill="#420d09"/>
      <path id="Path_86384" data-name="Path 86384" d="M332.262,24.965l-2.887-4.983a5.054,5.054,0,0,0-.386-.606,1.917,1.917,0,0,0-.385-.387,1.427,1.427,0,0,0-.4-.2,4.419,4.419,0,0,0-.533-.036v-.276h4.542v.276a3.165,3.165,0,0,0-1.012.11.388.388,0,0,0-.295.386,2,2,0,0,0,.331.865l2.225,3.9c.092.037.294-.036.442-.276l1.378-2.5A9.689,9.689,0,0,0,335.939,20a1.862,1.862,0,0,0,.183-.717c0-.184-.2-.35-.349-.423a1.6,1.6,0,0,0-.718-.11v-.276h3.292v.295a1.544,1.544,0,0,0-.533.074,1.288,1.288,0,0,0-.533.294,3.636,3.636,0,0,0-.57.717c-.22.313-.459.718-.753,1.214l-2.207,3.879v2.17a8.982,8.982,0,0,0,.055,1.121,1.545,1.545,0,0,0,.221.662.811.811,0,0,0,.477.312,4.508,4.508,0,0,0,.827.074l-.019.276h-4.651v-.293a3.342,3.342,0,0,0,.827-.074.847.847,0,0,0,.478-.294,1.38,1.38,0,0,0,.221-.625,8.223,8.223,0,0,0,.055-1.067Z" transform="translate(-50.75 -2.862)" fill="#420d09"/>
    </g>
    <g id="Group_66979" data-name="Group 66979" transform="translate(0 2)">
      <path id="Path_86385" data-name="Path 86385" d="M113.533,41.858h2.485a2.913,2.913,0,0,1,1.117.184,1.907,1.907,0,0,1,.694.469,1.6,1.6,0,0,1,.354.639,2.507,2.507,0,0,1,.1.684,1.829,1.829,0,0,1-.119.653,1.862,1.862,0,0,1-.345.569,1.973,1.973,0,0,1-.548.429,1.935,1.935,0,0,1-.723.215l2.005,3.222h-1.2l-1.8-3.113h-1.067v3.113h-.958Zm.958,3.113h1.257a3.377,3.377,0,0,0,.554-.046,1.468,1.468,0,0,0,.488-.164.9.9,0,0,0,.344-.344,1.375,1.375,0,0,0,0-1.168.9.9,0,0,0-.344-.345,1.487,1.487,0,0,0-.488-.164,3.377,3.377,0,0,0-.554-.046h-1.257Z" transform="translate(-17.584 -6.483)" fill="#1a1818"/>
      <path id="Path_86386" data-name="Path 86386" d="M124.857,41.858v4.33a2.77,2.77,0,0,0,.09.683,1.947,1.947,0,0,0,.3.654,1.635,1.635,0,0,0,.549.488,1.941,1.941,0,0,0,1.676,0,1.624,1.624,0,0,0,.548-.488,1.968,1.968,0,0,0,.3-.654,2.768,2.768,0,0,0,.09-.683v-4.33h.958v4.479a2.916,2.916,0,0,1-.21,1.123,2.676,2.676,0,0,1-.579.873,2.568,2.568,0,0,1-.868.569,3.01,3.01,0,0,1-2.155,0,2.563,2.563,0,0,1-.869-.569,2.676,2.676,0,0,1-.579-.873,2.9,2.9,0,0,1-.21-1.123V41.858Z" transform="translate(-19.19 -6.483)" fill="#1a1818"/>
      <path id="Path_86387" data-name="Path 86387" d="M135.669,41.858h2.485a2.918,2.918,0,0,1,1.118.184,1.914,1.914,0,0,1,.694.469,1.612,1.612,0,0,1,.353.639,2.474,2.474,0,0,1,.1.684,1.829,1.829,0,0,1-.119.653,1.862,1.862,0,0,1-.345.569,1.974,1.974,0,0,1-.548.429,1.935,1.935,0,0,1-.723.215l2,3.222h-1.2l-1.8-3.113h-1.067v3.113h-.958Zm.958,3.113h1.257a3.4,3.4,0,0,0,.555-.046,1.469,1.469,0,0,0,.488-.164.91.91,0,0,0,.345-.344,1.383,1.383,0,0,0,0-1.168.913.913,0,0,0-.345-.345,1.489,1.489,0,0,0-.488-.164,3.4,3.4,0,0,0-.555-.046h-1.257Z" transform="translate(-21.013 -6.483)" fill="#1a1818"/>
      <path id="Path_86388" data-name="Path 86388" d="M148.24,41.859h.868l3.024,7.063h-1.118l-.709-1.746h-3.362l-.7,1.746h-1.117Zm1.716,4.479L148.639,43.1h-.02l-1.337,3.243Z" transform="translate(-22.478 -6.483)" fill="#1a1818"/>
      <path id="Path_86389" data-name="Path 86389" d="M157.807,41.858h.958v6.166h3.243v.9h-4.2Z" transform="translate(-24.441 -6.483)" fill="#1a1818"/>
      <path id="Path_86390" data-name="Path 86390" d="M173.828,41.858h4.559v.9h-3.6v2.1h3.353v.9h-3.353v2.265h3.781v.9h-4.739Z" transform="translate(-26.923 -6.483)" fill="#1a1818"/>
      <path id="Path_86391" data-name="Path 86391" d="M184.157,41.858h2.464a4.6,4.6,0,0,1,1.312.169,3.518,3.518,0,0,1,.978.455,2.907,2.907,0,0,1,.688.653,3.481,3.481,0,0,1,.434.759,3.777,3.777,0,0,1,.229.778,4.1,4.1,0,0,1,.07.718,3.547,3.547,0,0,1-.249,1.312,3.326,3.326,0,0,1-.738,1.127,3.644,3.644,0,0,1-1.213.793,4.347,4.347,0,0,1-1.671.3h-2.305Zm.958,6.166h1.207a3.98,3.98,0,0,0,1.153-.164,2.806,2.806,0,0,0,.952-.494,2.37,2.37,0,0,0,.649-.823,2.613,2.613,0,0,0,.239-1.153,3.418,3.418,0,0,0-.11-.793,2.363,2.363,0,0,0-.414-.863,2.456,2.456,0,0,0-.843-.694,2.993,2.993,0,0,0-1.4-.284h-1.436Z" transform="translate(-28.523 -6.483)" fill="#1a1818"/>
      <path id="Path_86392" data-name="Path 86392" d="M197.2,41.858v4.33a2.771,2.771,0,0,0,.09.683,1.981,1.981,0,0,0,.3.654,1.643,1.643,0,0,0,.549.488,1.941,1.941,0,0,0,1.676,0,1.635,1.635,0,0,0,.549-.488,1.983,1.983,0,0,0,.3-.654,2.768,2.768,0,0,0,.09-.683v-4.33h.958v4.479a2.885,2.885,0,0,1-.21,1.123,2.66,2.66,0,0,1-.578.873,2.567,2.567,0,0,1-.868.569,3.01,3.01,0,0,1-2.155,0,2.559,2.559,0,0,1-.868-.569,2.664,2.664,0,0,1-.58-.873,2.9,2.9,0,0,1-.21-1.123V41.858Z" transform="translate(-30.396 -6.483)" fill="#1a1818"/>
      <path id="Path_86393" data-name="Path 86393" d="M212.857,43.351a1.98,1.98,0,0,0-.759-.6,2.252,2.252,0,0,0-.947-.21,2.534,2.534,0,0,0-1.083.225,2.489,2.489,0,0,0-.827.614,2.809,2.809,0,0,0-.535.913,3.281,3.281,0,0,0-.189,1.123,3.094,3.094,0,0,0,.18,1.057,2.635,2.635,0,0,0,.519.878,2.427,2.427,0,0,0,.827.6,2.68,2.68,0,0,0,1.109.22,2.205,2.205,0,0,0,1.067-.25,2.283,2.283,0,0,0,.778-.7l.809.608a3.428,3.428,0,0,1-.279.314,2.886,2.886,0,0,1-.53.409,3.736,3.736,0,0,1-.794.36,3.41,3.41,0,0,1-1.072.154,3.473,3.473,0,0,1-1.511-.319,3.643,3.643,0,0,1-1.873-2.011,3.686,3.686,0,0,1-.248-1.321,4.17,4.17,0,0,1,.268-1.513,3.6,3.6,0,0,1,.754-1.2,3.37,3.37,0,0,1,1.164-.783,3.869,3.869,0,0,1,1.5-.279,3.638,3.638,0,0,1,1.372.27,2.56,2.56,0,0,1,1.1.827Z" transform="translate(-32.139 -6.45)" fill="#1a1818"/>
      <path id="Path_86394" data-name="Path 86394" d="M221.686,41.859h.868l3.023,7.063h-1.118l-.708-1.746h-3.362l-.7,1.746h-1.117Zm1.716,4.479L222.085,43.1h-.02l-1.337,3.243Z" transform="translate(-33.854 -6.483)" fill="#1a1818"/>
      <path id="Path_86395" data-name="Path 86395" d="M231.5,42.756h-2.276v-.9h5.508v.9h-2.275v6.166H231.5Z" transform="translate(-35.503 -6.483)" fill="#1a1818"/>
      <rect id="Rectangle_16862" data-name="Rectangle 16862" width="0.958" height="7.064" transform="translate(203.038 35.375)" fill="#1a1818"/>
      <path id="Path_86396" data-name="Path 86396" d="M250,49.069a3.813,3.813,0,0,1-1.487-.284A3.481,3.481,0,0,1,247.35,48a3.616,3.616,0,0,1-.758-1.177,4.053,4.053,0,0,1,0-2.933,3.607,3.607,0,0,1,.758-1.177,3.456,3.456,0,0,1,1.162-.783,4.033,4.033,0,0,1,2.973,0,3.451,3.451,0,0,1,1.163.783,3.634,3.634,0,0,1,.758,1.177,4.053,4.053,0,0,1,0,2.933A3.643,3.643,0,0,1,252.648,48a3.476,3.476,0,0,1-1.163.783,3.81,3.81,0,0,1-1.487.284m0-.9a2.571,2.571,0,0,0,1.936-.828,2.693,2.693,0,0,0,.539-.893,3.246,3.246,0,0,0,0-2.185,2.684,2.684,0,0,0-.539-.893,2.647,2.647,0,0,0-3.871,0,2.657,2.657,0,0,0-.539.893,3.246,3.246,0,0,0,0,2.185,2.666,2.666,0,0,0,.539.893,2.571,2.571,0,0,0,1.935.828" transform="translate(-38.15 -6.45)" fill="#1a1818"/>
      <path id="Path_86397" data-name="Path 86397" d="M259.965,41.858h1.257l3.891,5.807h.02V41.858h.958v7.064h-1.217l-3.931-5.808h-.02v5.808h-.958Z" transform="translate(-40.265 -6.483)" fill="#1a1818"/>
      <path id="Path_86398" data-name="Path 86398" d="M284.1,43.351a1.98,1.98,0,0,0-.759-.6,2.249,2.249,0,0,0-.947-.21,2.53,2.53,0,0,0-1.083.225,2.493,2.493,0,0,0-.828.614,2.792,2.792,0,0,0-.534.913,3.281,3.281,0,0,0-.189,1.123,3.113,3.113,0,0,0,.179,1.057,2.651,2.651,0,0,0,.52.878,2.42,2.42,0,0,0,.827.6,2.678,2.678,0,0,0,1.108.22,2.2,2.2,0,0,0,1.067-.25,2.284,2.284,0,0,0,.777-.7l.809.608a3.185,3.185,0,0,1-.279.314,2.83,2.83,0,0,1-.53.409,3.728,3.728,0,0,1-.793.36,3.416,3.416,0,0,1-1.072.154,3.478,3.478,0,0,1-1.511-.319,3.695,3.695,0,0,1-2.12-3.331,4.153,4.153,0,0,1,.269-1.513,3.569,3.569,0,0,1,.754-1.2,3.359,3.359,0,0,1,1.163-.783,3.875,3.875,0,0,1,1.5-.279,3.638,3.638,0,0,1,1.372.27,2.555,2.555,0,0,1,1.1.827Z" transform="translate(-43.172 -6.45)" fill="#1a1818"/>
      <path id="Path_86399" data-name="Path 86399" d="M290.873,41.858h4.559v.9h-3.6v2.1h3.353v.9h-3.353v2.265h3.781v.9h-4.739Z" transform="translate(-45.052 -6.483)" fill="#1a1818"/>
      <path id="Path_86400" data-name="Path 86400" d="M301.393,41.858h1.257l3.891,5.807h.02V41.858h.958v7.064H306.3l-3.931-5.808h-.02v5.808h-.958Z" transform="translate(-46.681 -6.483)" fill="#1a1818"/>
      <path id="Path_86401" data-name="Path 86401" d="M315.427,42.756h-2.276v-.9h5.508v.9h-2.275v6.166h-.958Z" transform="translate(-48.502 -6.483)" fill="#1a1818"/>
      <path id="Path_86402" data-name="Path 86402" d="M324.178,41.858h2.485a2.916,2.916,0,0,1,1.117.184,1.907,1.907,0,0,1,.694.469,1.614,1.614,0,0,1,.354.639,2.539,2.539,0,0,1,.1.684,1.812,1.812,0,0,1-.12.653,1.843,1.843,0,0,1-.344.569,1.977,1.977,0,0,1-.549.429,1.93,1.93,0,0,1-.723.215l2,3.222H328l-1.8-3.113h-1.067v3.113h-.958Zm.958,3.113h1.258a3.367,3.367,0,0,0,.554-.046,1.461,1.461,0,0,0,.488-.164.9.9,0,0,0,.345-.344,1.383,1.383,0,0,0,0-1.168.907.907,0,0,0-.345-.345,1.481,1.481,0,0,0-.488-.164,3.367,3.367,0,0,0-.554-.046h-1.258Z" transform="translate(-50.21 -6.483)" fill="#1a1818"/>
      <path id="Path_86403" data-name="Path 86403" d="M334.7,41.858h4.559v.9h-3.6v2.1h3.353v.9h-3.353v2.265h3.781v.9H334.7Z" transform="translate(-51.84 -6.483)" fill="#1a1818"/>
    </g>
    <line id="Line_2" data-name="Line 2" x1="287.597" transform="translate(0 52.169)" fill="none" stroke="#420d09" stroke-miterlimit="10" stroke-width="0.5"/>
    <g id="Group_66981" data-name="Group 66981" transform="translate(10.234 2.51)">
      <g id="Group_66981-2" data-name="Group 66981" transform="translate(0 0)" clip-path="url(#clip-path)">
        <path id="Path_86404" data-name="Path 86404" d="M65.964,29.244c-.982-3.39-2.072-6.744-3.23-10.074a3.055,3.055,0,0,1-.332-1.349,3.351,3.351,0,0,1-.085-1.454,11.965,11.965,0,0,0-.582-3.357c-.269-.527-.7-1.725-1.4-1.707-.049,0-.112-.062-.147-.111-.206-.292-.413-.584-.605-.886-.087-.138-.148-.282-.356-.208a11.148,11.148,0,0,1-.886-1.143c-.766-.472-1.367-1.185-2.095-1.719a39.247,39.247,0,0,1-3.826-2.671A13.01,13.01,0,0,1,49.7,1.5,3.47,3.47,0,0,0,48.819.076.315.315,0,0,0,48.626,0a.183.183,0,0,0-.12.133c-.12,1.949,1.2,4.908,2.344,6.482.952,1.513,2.633,2.37,3.6,3.9-.889.381-1.684.923-2.54,1.37-.16.1-.385.208-.27.435-.261.162-.279.214-.16.414-.438.177-.5.194-.355.438-.1.229-.837.894-.258.9-.742.774.217.682-.4,1.25-.12.115-.239.249-.047.4A1.9,1.9,0,0,0,49.791,17a.575.575,0,0,0,.458-.233.531.531,0,0,1-.155.29c-.474.447-.949.894-1.432,1.332a2.506,2.506,0,0,1-1.429.7c-.21,0-.35.169-.464.319-.013.02.11.132.134.159-.511.893-1.886,1.115-2.808,1.451-.081.027-.205.085-.212.141-.068.3-.539.23-.766.37q-2.593.9-5.141,1.936A36.725,36.725,0,0,0,33,26.138c-2.875,2.278-5.722,4.606-8.548,6.948-.978.792-1.828,1.779-2.824,2.54a54.557,54.557,0,0,1-7.387,3.293,6.483,6.483,0,0,0-1.452.64c-1.178.776-2.427.194-3.745.98-1.193.731-.1,1.729.607,2.315a8.846,8.846,0,0,0,2.225.722c.873.087,1.747.154,2.621.232a1.686,1.686,0,0,1,.354.174c-1.421,1.675-3.112,3.1-4.685,4.63C8.8,49.9,7.6,51.344,6.161,52.561S3.49,55.278,2.128,56.592A9.131,9.131,0,0,0,.115,59.266a.538.538,0,0,0-.037.605A1.571,1.571,0,0,0,1,60.958c.822.317,3.935-2.191,4.747-2.768,1.882-1.5,3.8-2.969,5.551-4.624a8.837,8.837,0,0,1,1.492-1.251c.139.1.213-.022.3-.083.556-.4,1.035-.914,1.6-1.3.488-.329,5.294-2.741,6.449-3.292a32.205,32.205,0,0,0,3.385-1.821c.169-.1.336-.236.565-.149a6.782,6.782,0,0,0,.768-.425c-.017.155-.03.266-.042.379l.984-.676c.048.11.07.162.1.228l.667-.458c.059.115.093.181.139.274l1.347-.506c-.2.67.459.166.7.016a1.481,1.481,0,0,0,.84-.1c-.19.516-.414.75-.227,1.313-.036.327.3.338.508.472.4.312.91.494,1.287.821.4.458,1.642,1.509,1.614,2.079.016.132.2.256.325.316l0,.066a4.567,4.567,0,0,1-1.026.1c-.526.087-1.051.182-1.567.314-.5.128-.988.3-1.479.466a.238.238,0,0,0-.172.3.218.218,0,0,0,.277.194,5.168,5.168,0,0,1,2.158-.053c1.552.128,2.113-1.476,3.95-.605,0,.078.007.168.01.258a1.046,1.046,0,0,1,.364-.054c.694.37,1.972-.594,2.654-.884.765-.38,1,.124,1.534.152a2.6,2.6,0,0,0,1.179-.536c.645-.617,1.454-.216,2.107.139.723.192,2.253,1.063,2.887.633-.171-.149-.2-.417-.34-.572a3.848,3.848,0,0,0-1.961-1.081,9.592,9.592,0,0,0-3.507-.067A1.017,1.017,0,0,1,40.393,48c-1.387-1.041-3.183-1.314-4.741-2a4.936,4.936,0,0,0,.707-1.241c.363-.68.72-1.364,1.117-2.025.346-.6,1.085-.774,1.648-1.091-.024.117-.047.235-.083.416a5.424,5.424,0,0,0,1.328-.887.648.648,0,0,0-.04.361c.711-.121,1.1-.8,1.68-1.17.007.2-.1.391.148.329.188-.168,1.46-.629,1.118-.9l-.239.1c.662-.374,1.413-.587,2.087-.947a27.219,27.219,0,0,0,4.422-3.007,31.173,31.173,0,0,0,2.489-2.307c.164-.057.2-.162.244-.288.329-.7.836-1.312,1.159-2.014.822-1.6-.136-2.141.163-3.192A30.016,30.016,0,0,1,54.96,24.9c.015.138.023.2.031.269l.059.014a7.542,7.542,0,0,0,.557-1.516c.409-1.159,1.132-2.736,2.492-2.887.085.092.151.214.2.207a5.468,5.468,0,0,0,.976-.2c.308-.611,2.273,3,2.566,3.351a49.045,49.045,0,0,1,3.424,6.175c.334.927.646,1.862.959,2.8a.466.466,0,0,0,.469.376c.526-.913-.444-3.2-.728-4.246m-53.3,13.939c-1.207-.19-2.472-.3-3.317-1.3-.2-.193-.41-.34-.466-.634.406-.268.267-.039.475-.124.345-.376,1.6-.324,2.134-.412l-.229.276.313.232c.083.2.065.264.3.369-.007.3.235.318.442.393a.669.669,0,0,0-.548.242c-.143.364.713.577.949.817.09.064.02.141-.053.143M53.7,8.919l.076-.058,1.161,1.332-.288.144L53.7,8.919M43.54,29.984c-.07.312-.013.395.265.4.07.537.634.6,1.048.781.129.1.5.266.284.453l-1.157,1a.758.758,0,0,1-.706.284c-.066-.376-.335-.077-.522-.139.272-.1.253-.155.121-.392l-.411.176-.048-.057a1.766,1.766,0,0,0,.336-.4c-.374-.278-.506.3-.914-.085a1.631,1.631,0,0,0-.364-.192c-.1-.335-.412-.117-.616-.138-.053-.277-.166-.219-.419-.216.227-.888-.408-.1-1.812-.856-.154-.131-.271-.412-.52-.407a2.952,2.952,0,0,1-1.7-.455c-.1-.25-.167-.29-.409-.186a.294.294,0,0,1-.391-.088c-.177-.22-.588-.007-.654-.351a8.047,8.047,0,0,1,1.288-.378,1.21,1.21,0,0,0,.445-.1,2.3,2.3,0,0,0,1.86-.193,2.134,2.134,0,0,0,1.149.007l.089.251c.239.016.476.031.713.049.115.034.258.131.373.114a.7.7,0,0,1,.626.111,3.2,3.2,0,0,1,1.962.613c-.1.165-.1.307.087.385m1.736,2.337.353-.152c.138.118.077.228-.017.311-.526.458-1.06.909-1.589,1.364-.276.207-.565-.1-.429-.408.2-.509.691-.72,1.022-1.09a5.49,5.49,0,0,1,.483-.436c.213-.188.244-.181.363.112a.672.672,0,0,0-.222.239c.011.02.023.04.035.059m.837.849a14.483,14.483,0,0,1-2.3,1.6c-.041-.118-.067-.193-.11-.316l2.109-1.87.063.037c-.116.491.166.179.237.549m-2.006,2.117c.082-.148.34-.256.087-.429.618-.455,1.228-.9,1.835-1.352.2-.148.239-.141.369.106a12.394,12.394,0,0,1-2.29,1.674m2.667-1.324a.181.181,0,0,1-.066.292c-.783.515-1.557,1.04-2.335,1.562l-.19-.225-1.728.761c-.014-.023-.027-.047-.04-.07.4-.235.785-.486,1.192-.7a5.229,5.229,0,0,0,.615-.106A11.528,11.528,0,0,0,46.355,33.9c.2-.169.284-.162.419.062m-10.128,2.16c-.209.006-.424.139-.64,0,.155-.155.487-.082.447-.367s-.256-.405-.6-.4c.07-.086-.021-.483-.127-.61l.057-.047c.275.295-.1-.21-.215-.821.307-.088.8-.459.961,0,.025.115.107.136.206.07a.78.78,0,0,1,.744.033.529.529,0,0,0,.372.026c.24-.031.469.008.726,0l.09.155c.409-.053.563-.091.618.347l.388.2a14.634,14.634,0,0,1-3.029,1.413m-3.242-7,1.138.038c-.248.184-.418-.1-.717.247l-.432-.251.012-.034m-.821-1.752c.356-.038.8.363.484.717a12.742,12.742,0,0,1-1.2,1.5c-.374.239-.1.329-.492.653l-.338-.4.166-.214c-.258-.277-.38.042-.57.077.22-.286.723-.526.737-.9-.379.007-.543.408-.849.639.109-.654,1.478-1.812,2.066-2.081M23.75,36.077a3.337,3.337,0,0,1,1.169-.046c.155-.059.312-.222.427.056.027,0,.048.008.055,0,.226-.218.43-.088.572.082.16.191.29.124.442.03.268-.173.611-.09.913-.272l.138.252a12.6,12.6,0,0,1-3.59,1.267c-.078-.141-.183-.473-.405-.389-.184.176-.411.082-.61.1-.486.075-.36-.152-.554-.159-.169.173-.3.024-.42-.038a2.674,2.674,0,0,1,1.865-.881m1.918,4.307c-.785.178-1.567.367-2.362.486,0-.025-.008-.051-.012-.076.188-.089.482.045.549-.219a15.256,15.256,0,0,1,2-.473c.1.193-.039.251-.172.283m-.018.517c-.7.11-1.393.211-2.091.308-.046.007-.1-.035-.148-.053.032-.033.06-.087.1-.1.769-.138,1.549-.357,2.315-.446.068.171-.022.263-.173.287m.118-.993c-.688.166-1.356.3-2.059.428-.02-.075-.041-.152-.068-.257l-.948.133c-.006-.035-.013-.07-.019-.105l.425-.1c.053-.43-.076-.526-.672-.523.314-.06.63-.113.942-.183.161-.037.389-.04.287-.336-.193-.046-.475.119-.463-.221,0-.061-.091-.126-.182-.241l2.7-1.033a1.84,1.84,0,0,0,.179,1.758l-.059.018c.016.217.248.56-.062.662M23.741,41.62c-.019-.2.114-.247.287-.271.594-.081,1.189-.169,1.787-.255.461.543-4.212.89-4.591.8l2.517-.27m-.127.48c0,.016-.006.032-.009.048l-1.295.111L22.3,42.23c.443-.038.866-.281,1.309-.131m-7.576.952a18.442,18.442,0,0,1,3.181-.3c-.069.266-.256.243-.4.257a18.3,18.3,0,0,1-2.985.2c.067-.055.129-.149.2-.16m-.514-.839,0-.061,3.516-.223c-.081.185-.229.194-.392.2a25.6,25.6,0,0,1-3.126.082m.441.583.112-.347,3.26-.125a13.672,13.672,0,0,1-3.372.472m3.173-1.111a21.716,21.716,0,0,1-3.113.185c-.132,0-.2-.022-.232-.17-.024-.1-.131-.188-.211-.294.139-.222.1-.335-.234-.459,1.089-.086-.3-.59.825-.585.262-.718.968-.576,1.589-.712.386-.074.228.11.324.378L18.31,40c.006.16.012.3.019.49-.164.065-.024.187.029.3.165.35.5.241.792.253,0,.207-.008.407-.013.648m-5.571-1.934c-.007-.021-.013-.042-.02-.065a25.255,25.255,0,0,1,2.521-.743c.08.235.256.135.393.1.895-.168,1.779-.479,2.672-.6a27.937,27.937,0,0,1-5.567,1.307m-8.309,18.1c-.283.264-.28-.121-.628.12-.458.319-.458-.335-.984.1-.1.052-.189.059-.164-.1.026-.308-.276-.212-.493-.307.217-.188.4-.223.406-.5-.251-.105-.391.09-.577.228.1-.292.547-.427.388-.847.507-.617,1.071-1.258,1.637-1.831.314-.631.443-.478.692.071.1.281.669-.025.881.239.032.034.144.012.211-.01.352-.105.391.2.853.159-.034.36-.127.729.292.936a10.771,10.771,0,0,1-2.515,1.731m7.454-6.771c.126.376-.427.479-.3.874.016.053-.121.173-.208.234-.582.412-1.168.816-1.787,1.182.361-.287.723-.573,1.089-.863-.127-.253-.41-.228-.617-.264-.252-.289-.456.09-.671.205-.291.318-.647-.284-1.039.166a.165.165,0,0,1-.164.035,1.035,1.035,0,0,0,.406-.448c-.086.007-.206-.026-.28.012l-.38-.2c-.076-.224-.08-.228-.307-.2.137-.174.136-.18-.037-.35.042-.106.1-.2.154-.307-.276.029-.427.222-.665.341l2.445-2.434.05.044c-.086.34.07.2.3.26.112.147.208.04.312-.011.153-.076.31-.144.465-.217l.031.051c-.026.05-.052.1-.093.177l.363.173c-.038.07-.072.133-.111.2.333.257.706-.126,1.057.136-.136.3-.459.609-.463.976.383-.07.518-.514.83-.728-.1.948-.243.516-.379.959m4.043-2.61a1.4,1.4,0,0,0,.313-.51.345.345,0,0,0-.385.02c-.314.25-.661-.257-1.2-.246-.065-.462-.6-.293-.963-.434.059-.1.117-.2.2-.329l-.449-.267c-.048-.174-.022-.565-.279-.575-.19.208-.457.037-.669.137l1.312-1.28c-.029.208-.34.292-.132.527l.2-.111.284.382c.257-.057.506-.132.753-.177.241.245.395-.028.575-.1.279.143.439.49.782.276.132-.068.323-.02.489-.113.116-.065.364.292.329.447a1.186,1.186,0,0,0-.008.2c.255.016.37-.1.585-.261.222,1.038.423.1.778.549l-2.452,1.923-.06-.053M27.419,42.8l-.339-.121c-.044-.16-.093-.186-.261-.044-.556.465-1.081.952-1.643,1.413-.262-.2-.414.129-.637.139.051-.2.464-.226.253-.6a16.547,16.547,0,0,1-4.032,2.561l.015.055.153.043c-.346.271-.793.5-.865.959l.279.017-2.705,1.6-.143-.154c2.165-1.73,4.335-3.459,6.572-5.1.3-.217.421-.637.82-.706,1-.133,1.982-.451,2.978-.49l-.445.422m.418-9.989a3.464,3.464,0,0,1-.886.013c-.048-.319-.257-.385-.663-.166-.3.093-.612.174-.91.283l1.282-1.1.08.217c.325.143.605-.066.9-.065.395.382.641-.312.985-.011a.834.834,0,0,0,1.05.006c-.039.52.259.3.587.19-.037.08-.07.16-.1.243l.087,0a.069.069,0,0,1,.07.053h.038a.085.085,0,0,1,.021,0c.188-.375.425-.668.8-.14l.627-.462.241.237a.784.784,0,0,1,.876.356c.9-.531.106.435.791.25.181-.036.365-.053.52-.076.324.987,1.224-.79,1.7-.354.168.124.38-.019.43-.232a.255.255,0,0,1,.109-.145c.642-.368,1.271-.761,1.933-1.091,0-.021-.007-.042-.011-.063l.414.157c-.593.314-1.173.619-1.751.929-.117.063-.255.129-.133.309-.489.288-.786.513-.452,1.153-.249-.1-.459-.3-.5.1-.029.132-.394.286-.537.251-.7-.218-2.79.981-3.651,1.234a20.137,20.137,0,0,1-3.12.945l-.025-.056c.4-.2,1.338-.37,1.573-.7-.013-.239-.2-.613-.479-.639-.279-.239.606-.483.678-.7l-.121-.153c.11-.176.5-.182.324-.527l.38-.331c-.375-.183-1.24.551-1.409.73-.037-.383-.2-.426-.446-.308-.141.018-.291-.056-.441-.028a.31.31,0,0,0-.508-.07l.085-.178a.268.268,0,0,0-.43-.065m1.641,5.551-.025-.065a1.055,1.055,0,0,0,.505-.433.632.632,0,0,0-.511-.149l.236-.322-.352-.135c.125-.119.391-.251.541-.374a.942.942,0,0,0-.26-.23c1.514-.449-.03-.729,1.791-.913.1.65.715.088.8.55-.18.044-.464.295-.15.37.188-.033.341-.157.546-.131-.188.153-.545.25-.447.564a.11.11,0,0,1-.033.1c-.56.425.841.785.393.961-.853.307-1.735.527-2.6.779-.376.132-.314-.006-.642-.091.337-.127.757-.107,1.007-.392-.208-.251-.519-.093-.795-.09m.38.842,1.936-.578a2.081,2.081,0,0,1,1.441-.163,7.682,7.682,0,0,1-2.042.613,4.023,4.023,0,0,1-1.344.209c0-.026.007-.053.009-.081m3.163-.352c.118.192.011.279-.14.323a12.189,12.189,0,0,1-2.857.5c0-.025-.006-.051-.009-.076l3.007-.745m.149.784a6.47,6.47,0,0,1-2.762.4c.85-.285,1.743-.423,2.627-.661l.135.258M32.744,40a.9.9,0,0,1,.627-.054c0,.032-.008.064-.011.1l-3.03.779-.022-.07c.8-.3,1.625-.5,2.436-.751m.727.213c0,.027,0,.054-.007.082l-1.655.339-.01-.04c.375-.057,1.418-.537,1.672-.38M30.927,43.22l-.043-.07c.369-.219.652-.585,1.134-.617l-1.091.688m-1.1.221-.022-.025A8.488,8.488,0,0,0,31.19,42.14c.074-.154-.162-.245-.263-.2a7.42,7.42,0,0,0-.772.481c.2-.364,0-.506-.316-.3-.25.083-.433.436-.718.293-.295-.059-.263.307-.863.064.065-.389.414-.3.65-.338a37.313,37.313,0,0,1,4.018-.5l-3.1,1.815m2.589-.924c.354-.372.905-.522,1.161-.978l1.016-.144.033.051c-.37.3-.73.614-1.09.926l-.059-.076.691-.487c-.042-.238-.2-.172-.32-.1q-.7.42-1.387.868l-.045-.059m1.043,4.217c-.317-.339-.588-.72-.892-1.072a.451.451,0,0,1-.009-.522c.066-.387.4-.526.662-.742a17.325,17.325,0,0,1,1.764-1.465l.065.07c-.242.828-.29.34-.47.716a6.841,6.841,0,0,0-.717,2.708c-.007.521.07.605.588.646a14.262,14.262,0,0,1,3.895,1.663.76.76,0,0,1-.269.006c-1.366-.621-2.8,1.023-3.19,0a8.123,8.123,0,0,0-1.426-2.012m3.132,3.052c0,.031-.082.105-.106.1a6.4,6.4,0,0,0-2.63.1c-.9.785-2.137.393-3.2.415a9.835,9.835,0,0,1,3.049-.6,2.682,2.682,0,0,1,.954-.088c.036-.056.442.022.7-.281a5.8,5.8,0,0,1,2.238-.565c.007.032.013.065.02.1-.374.267-1.074.206-1.024.824m.168.314c.238-.341.385-.726.813-.842.284-.065.425-.24.718-.082.138.056.839.08,1.022-.121.025-.027.111,0,.168.008,0,.02.008.041.012.061-.644.218-2.192,1.348-2.733.976m-1.379-4.56c-.29.277-.284.5.088.659.814.342,1.649.637,2.474.954a8.841,8.841,0,0,1,2.553,1.283c1.145.245,2.394-.233,3.559-.04.8.215,1.9.362,2.233,1.234l-.056.066a26.234,26.234,0,0,1-2.6-.988c-1.485-.7-1.989.784-2.917.518-.222-.157-.837-.038-.956-.205a12.561,12.561,0,0,0-2.546-1.741c-.741-.342-1.526-.59-2.288-.886a.773.773,0,0,1-.472-1.077c.3-.475.492-1.338.968-1.623.576-.456.884-1.346,1.4-1.878.207.094.44.08.479.288a13.733,13.733,0,0,1-1.923,3.439m1.8-9.118c.026-.049.039-.125.08-.145.876-.444,1.755-.882,2.622-1.314.085.47-.29.6-.612.741-.632.27-1.276.509-1.918.755-.046.017-.114-.023-.172-.037m.2.434c0-.026.008-.053.012-.079.785-.361,1.567-.723,2.354-1.081.05.428.055.439-.324.59q-.9.358-1.8.681c-.059.021-.158-.071-.238-.111m.238.459c.264-.318.753-.342,1.112-.532.374-.149.748-.3,1.142-.464.08.143.26.329.021.406-.4.141-.8.285-1.207.425-.32.057-.807.414-1.069.166m.13.392c.706-.255,1.416-.493,2.111-.771a.516.516,0,0,1,.639.118c-.779.3-1.541.577-2.327.836-.2.07-.2.069-.423-.183m.4.4c.983-.342,1.966-.689,2.938-1.06l.045.076a12.826,12.826,0,0,1-2.891,1.339c-.091.036-.252.16-.307-.014a.276.276,0,0,1,.216-.34m-.2.673,2.729-1.094a.745.745,0,0,1-.441.615c-.678.24-1.354.487-2.039.733l-.25-.253m.282.7c.126-.063.393-.013.232-.312l2.021-.785.165.343-2.388.832c-.009-.026-.019-.053-.029-.079m.446.149L40.457,39c.014.025.027.052.04.078-.42.222-.847.436-1.26.672-.223.127-.383.062-.553-.129m.234.4a9.726,9.726,0,0,0,2.012-1.1.826.826,0,0,0,.6.433,6.967,6.967,0,0,1-2.615.663m2.949-3.71-.041-.073c.33-.177,1.008-.5,1.016-.49l-.975.563m.243,1.023c.02-.049.025-.123.06-.143a18.152,18.152,0,0,1,2.057-1c.931-.622,1.82-1.255,2.751-1.89a.452.452,0,0,1-.264.543,14.706,14.706,0,0,1-2.471,1.46c-.539.282-1.071.579-1.607.866-.168.068-.337.216-.526.16m1.958-.527a24.423,24.423,0,0,1,3.114-1.937c.014.035.029.07.044.1a14.281,14.281,0,0,1-3.159,1.832m3.287-1.686.082.1a8.745,8.745,0,0,1-1.755,1.257c-.217.1-.425.324-.674.289,0-.025-.006-.05-.008-.075l2.355-1.567m-4.072,3.582-.039-.057,1.676-.869c.01.019-1.082.637-1.637.926m2.574-1.57a15.476,15.476,0,0,1,1.538-.883l-1.26.909.016.067.293-.011.02.049-.885.281c-.031-.282-.059-.3-.3-.213-.791.314-1.521.774-2.287,1.145l-.026-.048a14.623,14.623,0,0,1,2.082-1.013c.131-.151.359-.2.079-.38L47.4,35.558l.051.057c-.069.678-1.477.975-1.805,1.519.072,0,.161.034.214,0M59.594,18.191a37.84,37.84,0,0,1,4.573,8.735,28.436,28.436,0,0,0-4.56-7.043c-.29-.308-.248.177-.605.077-.373-.07-.4-.051-.319.285l-1.47.409.358-.275c-.64-.146-1.1.318-1.691.42l-.036-.073a13.614,13.614,0,0,1,1.7-.64c.13-.02.158-.13.2-.236-.474-.133-2,1.109-2.068.232-.03-.184-.565-.785-.6-.38a.321.321,0,0,0,.054.168c.2.3.606,1.275.3,1.54-.181-.67-.129-1.882-1.068-1.9l-.033.091c1.156.9.7,1.62.436,2.843a15.1,15.1,0,0,1-.768,2.377l.072.052a7.629,7.629,0,0,0,.732-1.793,12.057,12.057,0,0,1,.415-1.393,2.675,2.675,0,0,1-.257,1.66c-.59,1.139-1.091,2.306-1.58,3.488-.105-.3.137-.639.1-.959a4.517,4.517,0,0,1,.7-1.872c.179-.446.853-2.051.4-2.343-.044.073-.13.149-.127.218a3.325,3.325,0,0,1-.318,1.522,31.445,31.445,0,0,0-1.859,4.638c-.5-.844.252-1.795.557-2.564.234-.539.456-1.084.683-1.626l-.075-.064c-.315.108-.367.529-.549.784a11.891,11.891,0,0,0-.751,1.606c-.062.591-.807,1.412-.609,1.886.089-.049.181-.082.213-.19a3.422,3.422,0,0,1,.56,3.114c-.226-.071-.309-.04-.368.2a4.028,4.028,0,0,1-.837,1.631c-.667.679-.7.741-1.629.475.028-.06.054-.119.087-.189l-.118-.1c.151-.469-.507-.149-.72-.3-.243-.159-.342.06-.553.083l.234-.217c-.008-.025-.018-.048-.027-.073l-.386.014.376-.514c-.2-.058-.2-.058-.492.256l-.325-.093.41-.6c-.131-.081-.211-.093-.309.022-.193.224-.4.431-.608.645l-.05-.046c.382-.5,1.939-1.907,1.81-2.458-.078.04-.194.059-.229.122a7.045,7.045,0,0,1-2.272,2.414l-.045-.065c.177-.124.35-.254.532-.371.234-.134.426-.882-.043-.549l-.042-.043c.414-.484.826-.968,1.235-1.457.054-.066.166-.167.009-.23-.316-.04-.971,1.1-1.262,1.361-.084.1-.2.273-.347.149-.345-.174,1.24-1.352,1.317-1.691l-.082-.067-1.342,1.3-.034-.036.173-.171c-.051-.325-.307-.438-.52-.558.035-.271-.13-.233-.325-.284,0-.024.021-.127,0-.138a.284.284,0,0,0-.22-.026,8.347,8.347,0,0,1-1.106.6l-.05-.089a7.593,7.593,0,0,1,.835-.516c.065-.058.15-.179.128-.233-.132-.254-.627.235-.829.287l-.037-.059q.428-.284.856-.57c.081-.053.23-.079.144-.222-.141-.224-.489.153-.655.225-.319.256-.588.05-.922-.036l.295-.229c-.537-.35-.767-1.086-1.471-1.065-.064,0-.147.037-.188.008-.433-.227-.817.32-1.241.4.227-.173.664-.284.751-.565-.111-.225-.316.035-.5.027l.13-.131c-.117-.154-.237-.135-.385-.055a10.164,10.164,0,0,1-1.078.509l1-.617c-.132-.2-.24-.2-.384-.1a2.054,2.054,0,0,1-1.025.006l.087-.11-.117-.164a3.754,3.754,0,0,0-.6.3c.094-.43-.288-.165-.564-.318l-1.162.719-.038-.042c.2-.35.973-.531,1.054-.926-.059-.149-.155-.072-.249-.008a5.844,5.844,0,0,1-1.434.812l-.048-.073,1.313-.987-.145-.225-.774.5c-.046-.2-.142-.2-.337-.229l-.061-.216-.334.225-.051-.057a1.37,1.37,0,0,1,.251-.222c.1-.055.247-.093.179-.227-.1-.182-.26-.006-.406.013-.019-.177.529-.27.074-.481.014-.113.026-.223.04-.334l-.053-.048c1.759-1.026,3.856-1.336,5.68-2.169a5.311,5.311,0,0,1,1.409-.6c1.1-.581,2.4-.712,3.44-1.353.962-.479,1.769-1.235,2.736-1.715-1.324,1.171-2.985,1.967-4.372,2.979.428.209,2-1.026,2.473-1.3,1.366-.864,2.439-2.093,3.75-3.013a10.507,10.507,0,0,0,.864-.668c.239-.271-.02-.608-.324-.352a.487.487,0,0,1-.246.116l.616-.465-.233-.256a6.588,6.588,0,0,0,.969-.441,2.073,2.073,0,0,0-.388-.222c.169-.036.443-.059.51-.236.015-.116-.069-.166-.2-.173a3.387,3.387,0,0,0-1.37.488c.093-.479,1.246-1.107,1.844-1.005.12-.583-1.054.1-1.312.133.145-.127.349-.228.135-.436.218-.208.642-.139.664-.59.441-.167.785.262,1.135.155-.122-.3-.848-.47-1.17-.4l.45-.181c-.284-.415-.627-.088-.944-.147.323-.138,1.207-.188,1.319-.518-.017-.121-.115-.158-.241-.115-.151.05-.217-.036-.249-.187.481-.171.858.266,1.248.473a.519.519,0,0,0,.447.218,2.225,2.225,0,0,0-1.55-.928,1.49,1.49,0,0,1,1.86-.464,1.381,1.381,0,0,0,.644.078c.149,0,.267-.025.363.13a13.085,13.085,0,0,1,.991,1.614c.138-.053.182-.111.11-.24a6.208,6.208,0,0,1-.358-.754c.852,1.012.587-.064,1.5,1.639.055-.127.131-.222.108-.262a4.962,4.962,0,0,0-1.283-1.671c-.031-.032-.072-.068-.078-.107-.082-.526-.5-.837-.79-1.224a20.358,20.358,0,0,0-1.606-1.931c-.266.29.158.4.123.625-.351-.437-.67-.846-1-1.283-.113-.11-.2.025-.2.127.423.555.918,1.081,1.363,1.626l-.053.053a12.232,12.232,0,0,0-2.711-2.446,8.507,8.507,0,0,1-.923-.816c-.175-.155-.023-.314-.029-.516.194.013.426.3.5.012.093-.335.1-.321-.184-.509A15.857,15.857,0,0,1,50.414,4.5c-.2.1-.309,0-.38-.187-.157-.411-.317-.822-.452-1.173.329-.194.245-.274.274-.6A14.785,14.785,0,0,0,54.3,6.728c.981.79,2.338,1.086,3.109,2.113a7.983,7.983,0,0,1,1.049,1.753c.643.289,1.125,1.933,1.612,2.495a.524.524,0,0,0,.138-.532,12.527,12.527,0,0,1-.378-1.484,18.967,18.967,0,0,1,1.646,3.849,5.437,5.437,0,0,1,.313,2.766,5.959,5.959,0,0,1-.112.614,1.271,1.271,0,0,0-.257.489c.269.063.395-.226.522.117a63.351,63.351,0,0,1,3.272,9.974,48.709,48.709,0,0,0-2.875-6.9A18.742,18.742,0,0,0,60.787,19.5a6.958,6.958,0,0,0-.991-1.519c-.138-.087-.245.1-.2.21" transform="translate(0 0)" fill="#420d09"/>
        <path id="Path_86405" data-name="Path 86405" d="M62.224,23.655a7.552,7.552,0,0,1-.766,1.389l.074.018c-.256,1.94-1.551,3.588-2.427,5.3-.1.213-.331.5-.046.674.555-1.113,1.241-2.157,1.8-3.266A17.838,17.838,0,0,0,61.518,26c-.008-.134.108-.178.2-.25.254,1.249-1.919,4.015-2.42,5.375-.093.44.549.65.554,1.08-.429-.147-.811-.913-1.161-1.253a3.269,3.269,0,0,0-3.434-1.591l-.023-.1a2.514,2.514,0,0,1,2.593.487c.307.273.588.571.9.872.687-1.22,1.349-2.444,1.983-3.689a3.4,3.4,0,0,0,.444-1.268,4.5,4.5,0,0,1,.825-1.877c.037-.07.118-.115.178-.172l.071.042" transform="translate(-8.335 -3.563)" fill="#420d09"/>
        <path id="Path_86406" data-name="Path 86406" d="M69.535,18.946a.815.815,0,1,1,1.6-.294c.408,1.173-1.561,1.635-1.6.294m.339-.43.85.005c-.153-.312-.569-.348-.85-.005" transform="translate(-10.493 -2.711)" fill="#420d09"/>
        <path id="Path_86407" data-name="Path 86407" d="M65.867,20.454c-.369.738-1.6-1.9-1.831-2.2a.514.514,0,0,1,.06-.6c.077.087.228.183.218.261a4.17,4.17,0,0,0,1.552,2.535" transform="translate(-9.653 -2.665)" fill="#420d09"/>
        <path id="Path_86408" data-name="Path 86408" d="M67.037,16.9a4.846,4.846,0,0,0-1.783-1.719c-.227-.155-.1-.465.142-.241.295.273,2.147,1.592,1.641,1.96" transform="translate(-9.83 -2.243)" fill="#420d09"/>
        <path id="Path_86409" data-name="Path 86409" d="M64.967,17.7c.031-.044.078-.114.127-.183a4.281,4.281,0,0,0,.757,1.189c.185.243.557.363.615.681-.433.142-1.481-1.232-1.5-1.687" transform="translate(-9.804 -2.644)" fill="#420d09"/>
        <path id="Path_86410" data-name="Path 86410" d="M64.788,18.5a10.219,10.219,0,0,1,.908,1.175c.138.215.414.357.386.643-.318.033-.588-.582-.818-.795-.124-.248-.893-.824-.476-1.023" transform="translate(-9.758 -2.791)" fill="#420d09"/>
        <path id="Path_86411" data-name="Path 86411" d="M69.215,18.257c-.074,1.062.15.982.591,1.8-.795-.042-1.006-1.248-.621-1.818l.03.018" transform="translate(-10.412 -2.752)" fill="#420d09"/>
        <path id="Path_86412" data-name="Path 86412" d="M71.408,20.437a.786.786,0,0,1,.02-.24,4.159,4.159,0,0,0,.434-1.591c0-.075.094-.144.167-.249a2.813,2.813,0,0,1-.622,2.08" transform="translate(-10.776 -2.77)" fill="#420d09"/>
        <path id="Path_86413" data-name="Path 86413" d="M68.065,22.357c.284.13-.116.319-.266.347a3.419,3.419,0,0,1-1.184.25c.082-.337,1.094-.436,1.449-.6" transform="translate(-10.053 -3.374)" fill="#420d09"/>
        <path id="Path_86414" data-name="Path 86414" d="M72.367,19.655a2.149,2.149,0,0,1-.672,1.241l-.076-.049c.19-.388.378-.777.575-1.162.012-.025.088-.017.173-.031" transform="translate(-10.808 -2.966)" fill="#420d09"/>
        <path id="Path_86415" data-name="Path 86415" d="M68.951,15.057c.277.242.276.591.408.91,0,.1-.116.2-.2.066-.086-.335-.39-.627-.207-.976" transform="translate(-10.396 -2.272)" fill="#420d09"/>
        <path id="Path_86416" data-name="Path 86416" d="M69.92,17.393a.532.532,0,0,1,.418.151.9.9,0,0,1-.706.207c-.043-.244.133-.295.288-.358" transform="translate(-10.507 -2.624)" fill="#420d09"/>
      </g>
    </g>
    <g id="Group_66990" data-name="Group 66990" transform="translate(95.949 58.077)">
      <path id="Path_86417" data-name="Path 86417" d="M3.787.169.657,2.558H.6V.169H0V5.591H.6v-2.8H.657l3.276,2.8H4.8L1.35,2.651,4.617.169Z" fill="#1a1818"/>
      <g id="Group_66991" data-name="Group 66991" transform="translate(0 0)">
        <g id="Group_66990-2" data-name="Group 66990" clip-path="url(#clip-path-2)">
          <path id="Path_86418" data-name="Path 86418" d="M8.131.17H9.569c.072,0,.17,0,.294.007a3,3,0,0,1,.4.046,2.55,2.55,0,0,1,.441.124,1.24,1.24,0,0,1,.4.248,1.279,1.279,0,0,1,.294.41,1.423,1.423,0,0,1,.116.6,1.391,1.391,0,0,1-.136.651,1.249,1.249,0,0,1-.341.414,1.426,1.426,0,0,1-.452.236,2.909,2.909,0,0,1-.472.109l1.593,2.632h-.581l-1.539-2.6H8.641v2.6h-.51Zm.51,2.415H9.724a1.791,1.791,0,0,0,.653-.1,1.077,1.077,0,0,0,.39-.247.784.784,0,0,0,.19-.317,1.127,1.127,0,0,0,.05-.311,1.12,1.12,0,0,0-.05-.309.784.784,0,0,0-.19-.317,1.077,1.077,0,0,0-.39-.247,1.774,1.774,0,0,0-.653-.1H8.641Z" transform="translate(-1.24 -0.029)" fill="#1a1818"/>
          <rect id="Rectangle_16864" data-name="Rectangle 16864" width="0.51" height="5.481" transform="translate(13.644 0.14)" fill="#1a1818"/>
          <path id="Path_86419" data-name="Path 86419" d="M21.111,4.606a1.306,1.306,0,0,0,.522.519,1.532,1.532,0,0,0,.731.171,1.457,1.457,0,0,0,.48-.077A1.225,1.225,0,0,0,23.234,5a1.022,1.022,0,0,0,.263-.336,1,1,0,0,0,.1-.445.861.861,0,0,0-.12-.472.954.954,0,0,0-.321-.306,2.355,2.355,0,0,0-.453-.205q-.25-.085-.518-.17a5.5,5.5,0,0,1-.518-.194,1.736,1.736,0,0,1-.453-.283,1.243,1.243,0,0,1-.321-.438,1.572,1.572,0,0,1-.12-.65,1.413,1.413,0,0,1,.143-.646A1.387,1.387,0,0,1,21.3.383,1.718,1.718,0,0,1,21.861.1a2.276,2.276,0,0,1,.665-.1,2.154,2.154,0,0,1,.831.158,1.571,1.571,0,0,1,.661.531l-.441.317A1.3,1.3,0,0,0,23.126.6a1.3,1.3,0,0,0-.614-.136,1.648,1.648,0,0,0-.472.066,1.194,1.194,0,0,0-.391.194.943.943,0,0,0-.266.322.966.966,0,0,0-.1.456.882.882,0,0,0,.208.631,1.456,1.456,0,0,0,.522.35,5.573,5.573,0,0,0,.681.224,3.249,3.249,0,0,1,.681.26,1.466,1.466,0,0,1,.523.453,1.351,1.351,0,0,1,.208.8,1.5,1.5,0,0,1-.139.658,1.457,1.457,0,0,1-.375.484,1.617,1.617,0,0,1-.545.3,2.079,2.079,0,0,1-.642.1,2.579,2.579,0,0,1-1-.19,1.828,1.828,0,0,1-.781-.639Z" transform="translate(-3.144 0)" fill="#1a1818"/>
          <path id="Path_86420" data-name="Path 86420" d="M28.656.169h.51V2.584h3.063V.169h.51V5.65h-.51v-2.6H29.166v2.6h-.51Z" transform="translate(-4.368 -0.029)" fill="#1a1818"/>
          <path id="Path_86421" data-name="Path 86421" d="M37.8.169h.657l3.333,4.8h.016V.169h.511V5.65h-.659L38.325.849H38.31v4.8H37.8Z" transform="translate(-5.762 -0.029)" fill="#1a1818"/>
          <path id="Path_86422" data-name="Path 86422" d="M49.005.169h.525L51.837,5.65h-.573l-.6-1.456h-2.9L47.149,5.65h-.534Zm.24.557-1.276,3h2.514Z" transform="translate(-7.106 -0.029)" fill="#1a1818"/>
          <path id="Path_86423" data-name="Path 86423" d="M56.2.169h.765l2,4.6,2-4.6h.726V5.65h-.51V.819h-.015L59.068,5.65h-.225L56.723.819h-.015V5.65H56.2Z" transform="translate(-8.567 -0.029)" fill="#1a1818"/>
          <path id="Path_86424" data-name="Path 86424" d="M70.8,3.552a3.478,3.478,0,0,1-.1.844,1.922,1.922,0,0,1-.336.712,1.681,1.681,0,0,1-.619.5,2.474,2.474,0,0,1-1.88,0,1.684,1.684,0,0,1-.618-.5,1.922,1.922,0,0,1-.336-.712,3.479,3.479,0,0,1-.1-.844V.169h.51V3.421a3.868,3.868,0,0,0,.054.627,1.9,1.9,0,0,0,.213.62,1.307,1.307,0,0,0,.448.472,1.689,1.689,0,0,0,1.539,0,1.324,1.324,0,0,0,.449-.472,1.9,1.9,0,0,0,.213-.62,3.966,3.966,0,0,0,.054-.627V.169h.51Z" transform="translate(-10.185 -0.029)" fill="#1a1818"/>
          <path id="Path_86425" data-name="Path 86425" d="M75.727.17h1.438c.072,0,.17,0,.294.007a3,3,0,0,1,.4.046A2.572,2.572,0,0,1,78.3.347,1.24,1.24,0,0,1,78.7.6a1.279,1.279,0,0,1,.294.41,1.423,1.423,0,0,1,.116.6,1.38,1.38,0,0,1-.136.651,1.25,1.25,0,0,1-.341.414,1.422,1.422,0,0,1-.453.236,2.88,2.88,0,0,1-.471.109l1.593,2.632h-.581l-1.538-2.6h-.952v2.6h-.51Zm.51,2.415H77.32a1.791,1.791,0,0,0,.653-.1,1.077,1.077,0,0,0,.39-.247.784.784,0,0,0,.19-.317,1.127,1.127,0,0,0,.05-.311,1.121,1.121,0,0,0-.05-.309.784.784,0,0,0-.19-.317,1.077,1.077,0,0,0-.39-.247,1.774,1.774,0,0,0-.653-.1H76.237Z" transform="translate(-11.544 -0.029)" fill="#1a1818"/>
          <path id="Path_86426" data-name="Path 86426" d="M84.845.634H82.973V.169h4.254V.634H85.355V5.65h-.51Z" transform="translate(-12.649 -0.029)" fill="#1a1818"/>
          <rect id="Rectangle_16865" data-name="Rectangle 16865" width="0.51" height="5.481" transform="translate(77.587 0.14)" fill="#1a1818"/>
          <path id="Path_86427" data-name="Path 86427" d="M101.4.169h3.279V.633h-2.769V2.584h2.576v.465h-2.576v2.6h-.51Z" transform="translate(-15.458 -0.029)" fill="#1a1818"/>
          <path id="Path_86428" data-name="Path 86428" d="M108.608,2.88a3.106,3.106,0,0,1,.208-1.153A2.755,2.755,0,0,1,109.4.817a2.63,2.63,0,0,1,.893-.6,3.161,3.161,0,0,1,2.3,0,2.651,2.651,0,0,1,.894.6,2.739,2.739,0,0,1,.58.909,3.106,3.106,0,0,1,.209,1.153,3.145,3.145,0,0,1-.209,1.158,2.737,2.737,0,0,1-.58.913,2.594,2.594,0,0,1-.894.6,3.207,3.207,0,0,1-2.3,0,2.574,2.574,0,0,1-.893-.6,2.752,2.752,0,0,1-.581-.913,3.145,3.145,0,0,1-.208-1.158m.51,0a2.74,2.74,0,0,0,.163.953,2.258,2.258,0,0,0,.464.766,2.168,2.168,0,0,0,.731.511,2.591,2.591,0,0,0,1.926,0,2.148,2.148,0,0,0,.731-.511,2.262,2.262,0,0,0,.465-.766,2.76,2.76,0,0,0,.162-.953,2.752,2.752,0,0,0-.162-.952,2.258,2.258,0,0,0-.465-.767A2.146,2.146,0,0,0,112.4.65a2.591,2.591,0,0,0-1.926,0,2.166,2.166,0,0,0-.731.51,2.254,2.254,0,0,0-.464.767,2.732,2.732,0,0,0-.163.952" transform="translate(-16.557 0)" fill="#1a1818"/>
          <path id="Path_86429" data-name="Path 86429" d="M123.066,3.552a3.479,3.479,0,0,1-.1.844,1.922,1.922,0,0,1-.336.712,1.681,1.681,0,0,1-.619.5,2.474,2.474,0,0,1-1.88,0,1.684,1.684,0,0,1-.618-.5,1.922,1.922,0,0,1-.336-.712,3.479,3.479,0,0,1-.1-.844V.169h.51V3.421a3.868,3.868,0,0,0,.054.627,1.9,1.9,0,0,0,.213.62,1.307,1.307,0,0,0,.448.472,1.689,1.689,0,0,0,1.539,0,1.324,1.324,0,0,0,.449-.472,1.9,1.9,0,0,0,.213-.62,3.965,3.965,0,0,0,.054-.627V.169h.51Z" transform="translate(-18.153 -0.029)" fill="#1a1818"/>
          <path id="Path_86430" data-name="Path 86430" d="M127.992.169h.657l3.333,4.8H132V.169h.511V5.65h-.659l-3.333-4.8H128.5v4.8h-.51Z" transform="translate(-19.512 -0.029)" fill="#1a1818"/>
          <path id="Path_86431" data-name="Path 86431" d="M137.566.169h1.693a3.65,3.65,0,0,1,1.206.174,2.672,2.672,0,0,1,.825.444,2.23,2.23,0,0,1,.518.6,2.939,2.939,0,0,1,.278.631,2.907,2.907,0,0,1,.112.546c.016.162.024.278.024.345s-.008.182-.024.345a2.92,2.92,0,0,1-.112.546,2.962,2.962,0,0,1-.278.632,2.212,2.212,0,0,1-.518.6,2.691,2.691,0,0,1-.825.445,3.65,3.65,0,0,1-1.206.174h-1.693Zm.51,5.017h1.052a3.67,3.67,0,0,0,1.013-.135,2.322,2.322,0,0,0,.82-.415,1.956,1.956,0,0,0,.549-.708,2.386,2.386,0,0,0,.2-1.018,2.384,2.384,0,0,0-.2-1.018,1.956,1.956,0,0,0-.549-.708,2.309,2.309,0,0,0-.82-.415,3.67,3.67,0,0,0-1.013-.135h-1.052Z" transform="translate(-20.972 -0.029)" fill="#1a1818"/>
          <path id="Path_86432" data-name="Path 86432" d="M148.515.169h.525l2.306,5.481h-.573l-.6-1.456h-2.9l-.619,1.456h-.534Zm.24.557-1.276,3h2.514Z" transform="translate(-22.276 -0.029)" fill="#1a1818"/>
          <path id="Path_86433" data-name="Path 86433" d="M156.247.634h-1.872V.169h4.254V.634h-1.871V5.65h-.51Z" transform="translate(-23.534 -0.029)" fill="#1a1818"/>
          <rect id="Rectangle_16866" data-name="Rectangle 16866" width="0.51" height="5.481" transform="translate(138.104 0.14)" fill="#1a1818"/>
          <path id="Path_86434" data-name="Path 86434" d="M167.453,2.88a3.106,3.106,0,0,1,.209-1.153,2.755,2.755,0,0,1,.581-.909,2.63,2.63,0,0,1,.893-.6,3.161,3.161,0,0,1,2.3,0,2.65,2.65,0,0,1,.894.6,2.739,2.739,0,0,1,.58.909,3.106,3.106,0,0,1,.208,1.153,3.145,3.145,0,0,1-.208,1.158,2.737,2.737,0,0,1-.58.913,2.593,2.593,0,0,1-.894.6,3.207,3.207,0,0,1-2.3,0,2.574,2.574,0,0,1-.893-.6,2.753,2.753,0,0,1-.581-.913,3.145,3.145,0,0,1-.209-1.158m.51,0a2.74,2.74,0,0,0,.163.953,2.259,2.259,0,0,0,.464.766,2.159,2.159,0,0,0,.731.511,2.591,2.591,0,0,0,1.926,0,2.148,2.148,0,0,0,.731-.511,2.262,2.262,0,0,0,.465-.766,2.76,2.76,0,0,0,.162-.953,2.752,2.752,0,0,0-.162-.952,2.258,2.258,0,0,0-.465-.767,2.146,2.146,0,0,0-.731-.51,2.591,2.591,0,0,0-1.926,0,2.157,2.157,0,0,0-.731.51,2.254,2.254,0,0,0-.464.767,2.732,2.732,0,0,0-.163.952" transform="translate(-25.528 0)" fill="#1a1818"/>
          <path id="Path_86435" data-name="Path 86435" d="M178.039.169h.657l3.333,4.8h.016V.169h.511V5.65H181.9l-3.333-4.8h-.015v4.8h-.51Z" transform="translate(-27.142 -0.029)" fill="#1a1818"/>
          <rect id="Rectangle_16867" data-name="Rectangle 16867" width="0.51" height="5.481" transform="translate(163.257 0.14)" fill="#1a1818"/>
          <path id="Path_86436" data-name="Path 86436" d="M197.551.169h.657l3.333,4.8h.016V.169h.511V5.65h-.659l-3.333-4.8h-.015v4.8h-.51Z" transform="translate(-30.116 -0.029)" fill="#1a1818"/>
          <path id="Path_86437" data-name="Path 86437" d="M207.124.169h1.693a3.65,3.65,0,0,1,1.206.174,2.672,2.672,0,0,1,.825.444,2.23,2.23,0,0,1,.518.6,2.939,2.939,0,0,1,.278.631,2.907,2.907,0,0,1,.112.546c.016.162.024.278.024.345s-.008.182-.024.345a2.92,2.92,0,0,1-.112.546,2.962,2.962,0,0,1-.278.632,2.211,2.211,0,0,1-.518.6,2.691,2.691,0,0,1-.825.445,3.65,3.65,0,0,1-1.206.174h-1.693Zm.51,5.017h1.052a3.67,3.67,0,0,0,1.013-.135,2.322,2.322,0,0,0,.82-.415,1.956,1.956,0,0,0,.549-.708,2.386,2.386,0,0,0,.2-1.018,2.384,2.384,0,0,0-.2-1.018,1.956,1.956,0,0,0-.549-.708,2.309,2.309,0,0,0-.82-.415,3.67,3.67,0,0,0-1.013-.135h-1.052Z" transform="translate(-31.576 -0.029)" fill="#1a1818"/>
          <rect id="Rectangle_16868" data-name="Rectangle 16868" width="0.51" height="5.481" transform="translate(183.515 0.14)" fill="#1a1818"/>
          <path id="Path_86438" data-name="Path 86438" d="M223,.169h.525l2.306,5.481h-.573l-.6-1.456h-2.9l-.619,1.456h-.534Zm.24.557-1.276,3h2.514Z" transform="translate(-33.632 -0.029)" fill="#1a1818"/>
        </g>
      </g>
    </g>
  </g>
</svg>
